<svg width="35" height="26" viewBox="0 0 35 26" fill="none" xmlns="http://www.w3.org/2000/svg">
<path d="M21.671 14.4142L18.1575 17.707C17.9572 17.9024 17.6949 18 17.4326 18C17.1703 18 16.9078 17.9024 16.7076 17.707L13.3308 14.4141L1.75818 25.699C2.15932 25.8863 2.60292 25.9999 3.0766 25.9999H31.9251C32.3987 25.9999 32.842 25.8864 33.2431 25.6993L21.671 14.4142Z" fill="#B5DF0A"/>
<path d="M31.9246 0H3.07612C2.60258 0 2.15926 0.113533 1.75818 0.300666L17.432 15.5859L20.945 12.2934C20.945 12.2934 20.9453 12.2931 20.9454 12.293C20.9455 12.2928 20.9457 12.2927 20.9457 12.2927L33.2431 0.300932C32.8419 0.113666 32.3983 0 31.9246 0Z" fill="#B5DF0A"/>
<path d="M34.6922 1.71582L23.1199 13.0007L34.6918 24.2857C34.8837 23.8946 35.0001 23.4623 35.0001 23.0005V3.00061C35.0001 2.53908 34.8839 2.10682 34.6922 1.71582Z" fill="#B5DF0A"/>
<path d="M0.30831 1.71484C0.11642 2.10598 0 2.53831 0 3.0001V23C0 23.4615 0.116283 23.8939 0.308037 24.2849L11.8805 13.0001L0.30831 1.71484Z" fill="#B5DF0A"/>
</svg>
