<svg width="33" height="24" viewBox="0 0 33 24" fill="none" xmlns="http://www.w3.org/2000/svg">
<path d="M0.452099 24V21.5962C2.83818 19.3427 4.03122 16.4632 4.03122 12.9577C4.03122 12.507 4.0061 12.0814 3.95587 11.6808C1.31862 10.6792 0 8.81377 0 6.08451C0 4.33177 0.602799 2.8795 1.8084 1.7277C3.01399 0.5759 4.52099 0 6.32939 0C8.58988 0 10.436 0.813771 11.8676 2.44131C13.3244 4.06886 14.0527 6.17214 14.0527 8.75117C14.0527 12.482 12.7718 15.8372 10.2099 18.8169C7.67313 21.7966 4.42052 23.5243 0.452099 24Z" fill="#4D4D4D"/>
<path d="M19.3994 24V21.5962C21.7854 19.3427 22.9785 16.4632 22.9785 12.9577C22.9785 12.507 22.9534 12.0814 22.9031 11.6808C20.2659 10.6792 18.9473 8.81377 18.9473 6.08451C18.9473 4.33177 19.5501 2.8795 20.7557 1.7277C21.9612 0.5759 23.4682 0 25.2766 0C27.5371 0 29.3832 0.813771 30.8149 2.44131C32.2716 4.06886 33 6.17214 33 8.75117C33 12.482 31.7191 15.8372 29.1572 18.8169C26.6204 21.7966 23.3678 23.5243 19.3994 24Z" fill="#4D4D4D"/>
</svg>
