<svg width="26" height="26" viewBox="0 0 26 26" fill="none" xmlns="http://www.w3.org/2000/svg">
<path d="M19.7673 17.1996C18.9178 16.361 17.8574 16.361 17.0133 17.1996C16.3695 17.838 15.7256 18.4764 15.0926 19.1257C14.9195 19.3042 14.7734 19.3421 14.5624 19.2231C14.1457 18.9958 13.7021 18.8119 13.3017 18.563C11.4351 17.389 9.87143 15.8794 8.48633 14.1806C7.79919 13.3366 7.1878 12.433 6.76037 11.4159C6.6738 11.2103 6.69003 11.075 6.85776 10.9073C7.50161 10.2851 8.12923 9.64664 8.76227 9.00821C9.64418 8.1209 9.64418 7.0821 8.75686 6.18938C8.25368 5.6808 7.7505 5.18305 7.24732 4.67447C6.72791 4.15507 6.2139 3.63025 5.68908 3.11626C4.83963 2.28847 3.77916 2.28847 2.93512 3.12168C2.28586 3.76011 1.66365 4.41477 1.00356 5.04237C0.39217 5.62129 0.0837693 6.33006 0.0188429 7.15785C-0.0839573 8.50504 0.246085 9.77649 0.711391 11.0155C1.66365 13.58 3.11367 15.8578 4.87209 17.9462C7.24732 20.7705 10.0824 23.005 13.3991 24.6173C14.8924 25.3423 16.4398 25.8995 18.1225 25.9915C19.2803 26.0564 20.2867 25.7643 21.0929 24.8607C21.6447 24.244 22.267 23.6813 22.8513 23.0915C23.717 22.215 23.7224 21.1546 22.8621 20.2889C21.8341 19.2556 20.8007 18.2276 19.7673 17.1996Z" fill="#B5DF0A"/>
<path d="M18.7339 12.887L20.7304 12.5461C20.4166 10.712 19.5509 9.05098 18.2361 7.73084C16.8456 6.34037 15.0872 5.46388 13.1502 5.19336L12.8689 7.20062C14.3676 7.41163 15.7311 8.08793 16.8078 9.1646C17.8249 10.1818 18.4904 11.4694 18.7339 12.887Z" fill="#B5DF0A"/>
<path d="M21.8555 4.20929C19.5506 1.90446 16.6343 0.449063 13.415 0L13.1337 2.00726C15.9147 2.39681 18.436 3.65743 20.4271 5.64304C22.3154 7.53127 23.5544 9.91726 24.0035 12.5413L26 12.2004C25.4752 9.1598 24.0414 6.4005 21.8555 4.20929Z" fill="#B5DF0A"/>
</svg>
